<mxfile host="app.diagrams.net" modified="2021-02-06T07:57:00.161Z" agent="5.0 (Macintosh)" etag="1EffzxeyEBUFunKsbYOA" version="14.2.9" type="github">
  <diagram id="Qysw3-rOo7-g8x6gWeUs" name="Page-1">
    <mxGraphModel dx="868" dy="715" grid="1" gridSize="10" guides="1" tooltips="1" connect="1" arrows="1" fold="1" page="1" pageScale="1" pageWidth="850" pageHeight="1100" math="0" shadow="0">
      <root>
        <mxCell id="0" />
        <mxCell id="1" parent="0" />
        <mxCell id="IYrFxxv-hgy3-oWXNiMI-4" value="" style="edgeStyle=orthogonalEdgeStyle;rounded=0;orthogonalLoop=1;jettySize=auto;html=1;" edge="1" parent="1" source="IYrFxxv-hgy3-oWXNiMI-1" target="IYrFxxv-hgy3-oWXNiMI-3">
          <mxGeometry relative="1" as="geometry" />
        </mxCell>
        <mxCell id="IYrFxxv-hgy3-oWXNiMI-1" value="多层感知机的构建" style="rounded=0;whiteSpace=wrap;html=1;" vertex="1" parent="1">
          <mxGeometry x="80" y="200" width="120" height="60" as="geometry" />
        </mxCell>
        <mxCell id="IYrFxxv-hgy3-oWXNiMI-2" value="&lt;font style=&quot;font-size: 20px&quot;&gt;&lt;b&gt;&lt;span style=&quot;font-family: &amp;#34;kaiti&amp;#34; ; color: rgb(0 , 112 , 193)&quot; lang=&quot;ZH-CN&quot;&gt;建立适用于全基因组数据的变量筛选方法&lt;/span&gt;&lt;/b&gt;&lt;/font&gt;" style="rounded=1;whiteSpace=wrap;html=1;" vertex="1" parent="1">
          <mxGeometry x="80" y="120" width="520" height="60" as="geometry" />
        </mxCell>
        <mxCell id="IYrFxxv-hgy3-oWXNiMI-6" value="" style="edgeStyle=orthogonalEdgeStyle;rounded=0;orthogonalLoop=1;jettySize=auto;html=1;" edge="1" parent="1" source="IYrFxxv-hgy3-oWXNiMI-3" target="IYrFxxv-hgy3-oWXNiMI-5">
          <mxGeometry relative="1" as="geometry" />
        </mxCell>
        <mxCell id="IYrFxxv-hgy3-oWXNiMI-3" value="参数设置和优化" style="whiteSpace=wrap;html=1;rounded=0;" vertex="1" parent="1">
          <mxGeometry x="240" y="200" width="120" height="60" as="geometry" />
        </mxCell>
        <mxCell id="IYrFxxv-hgy3-oWXNiMI-5" value="变量重要性评分统计量的估算和分布推到" style="whiteSpace=wrap;html=1;rounded=0;" vertex="1" parent="1">
          <mxGeometry x="390" y="200" width="120" height="60" as="geometry" />
        </mxCell>
        <mxCell id="IYrFxxv-hgy3-oWXNiMI-7" value="&lt;font style=&quot;font-size: 20px&quot;&gt;&lt;b&gt;&lt;span style=&quot;font-family: &amp;#34;kaiti&amp;#34; ; color: rgb(0 , 112 , 193)&quot; lang=&quot;ZH-CN&quot;&gt;建立将变量筛选和风险预测有机融合的深度迁移学习模型&lt;/span&gt;&lt;/b&gt;&lt;/font&gt;" style="rounded=1;whiteSpace=wrap;html=1;" vertex="1" parent="1">
          <mxGeometry x="80" y="320" width="520" height="60" as="geometry" />
        </mxCell>
        <mxCell id="IYrFxxv-hgy3-oWXNiMI-8" value="深度迁移学习模型的构建" style="rounded=0;whiteSpace=wrap;html=1;" vertex="1" parent="1">
          <mxGeometry x="80" y="400" width="120" height="60" as="geometry" />
        </mxCell>
        <mxCell id="IYrFxxv-hgy3-oWXNiMI-12" value="隐含层的结构和参数设置与优化" style="rounded=0;whiteSpace=wrap;html=1;" vertex="1" parent="1">
          <mxGeometry x="240" y="400" width="120" height="60" as="geometry" />
        </mxCell>
      </root>
    </mxGraphModel>
  </diagram>
</mxfile>
